<svg id="Capa_1" enable-background="new 0 0 512 512" height="512" viewBox="0 0 512 512" width="512" xmlns="http://www.w3.org/2000/svg"><g><path d="m512 0h-512v431.225h192.735l-2.071 5.521c-10.151 27.068-36.394 45.254-65.303 45.254h-1.277v30h263.833v-30c-28.908 0-55.152-18.186-65.303-45.254l-2.071-5.521h191.457zm-30 30v310.635h-452v-310.635zm-187.476 417.281c4.964 13.236 12.622 24.985 22.199 34.719h-120.169c9.578-9.734 17.235-21.483 22.2-34.719l6.021-16.057h63.727zm-264.524-46.056v-30.59h452v30.59z"/><path d="m161.847 230.464h-30v25.557h-28.072v30h28.072v26.525h30v-26.525h246.378v-30h-246.378z"/><path d="m409.069 58.652h-305.816v141.643h305.816zm-30 111.643h-245.816v-81.643h245.816z"/></g></svg>