<svg id="Capa_1" enable-background="new 0 0 512.002 512.002" height="512" viewBox="0 0 512.002 512.002" width="512" xmlns="http://www.w3.org/2000/svg"><g><path d="m488.68 133.482c6.882 4.586 16.198 2.744 20.801-4.161 4.596-6.893 2.733-16.206-4.16-20.801-8.267-5.511-81.734-54.489-90-60-5.039-3.358-11.602-3.358-16.641 0-8.264 5.51-81.734 54.489-90 60-6.894 4.596-8.756 13.909-4.16 20.801 4.596 6.894 13.91 8.755 20.801 4.161l6.68-4.453v66.972h-15c-8.284 0-15 6.716-15 15s6.716 15 15 15h75v45c0 8.271-6.729 15-15 15h-78.58c-6.192-17.458-22.865-30-42.42-30s-36.228 12.542-42.42 30h-77.581c-8.271 0-15-6.729-15-15v-45h75c8.284 0 15-6.716 15-15v-120c0-8.284-6.716-15-15-15h-45v-15c0-24.813-20.187-45-45-45s-45 20.187-45 45v15h-46c-8.284 0-15 6.716-15 15v120c0 8.284 6.716 15 15 15h76v45c0 24.813 20.187 45 45 45h77.58c4.527 12.764 14.656 22.893 27.42 27.42v62.58h-45c-41.355 0-75 33.645-75 75 0 8.284 6.716 15 15 15h240c8.284 0 15-6.716 15-15 0-41.355-33.645-75-75-75h-45v-62.58c12.764-4.527 22.893-14.656 27.42-27.42h78.58c24.813 0 45-20.187 45-45v-45h75c8.284 0 15-6.716 15-15s-6.716-15-15-15h-15v-66.972zm-397.68-72.481c0-8.271 6.729-15 15-15s15 6.729 15 15v15h-30zm90 45v30h-151v-30zm-151 60h151v30h-151zm328.43 300h-204.86c6.191-17.461 22.874-30 42.43-30h120c19.557 0 36.239 12.539 42.43 30zm-102.43-150c-8.271 0-15-6.729-15-15s6.729-15 15-15 15 6.729 15 15-6.729 15-15 15zm106-120v-86.972l45-30 45 30v86.972z"/></g></svg>