<svg id="Layer_1" enable-background="new 0 0 512 512" height="512" viewBox="0 0 512 512" width="512" xmlns="http://www.w3.org/2000/svg"><g><path d="m432.733 305.267h-49.267v-17.133c0-8.284-6.716-15-15-15h-64.266c-8.284 0-15 6.716-15 15v57.3h-130.667v-57.3c0-8.284-6.716-15-15-15h-64.266c-8.284 0-15 6.716-15 15v17.133h-49.267c-8.284 0-15 6.716-15 15v144.6c0 8.284 6.716 15 15 15h49.267v17.133c0 8.284 6.716 15 15 15h64.267c8.284 0 15-6.716 15-15v-57.3h130.666v57.3c0 8.284 6.716 15 15 15h64.267c8.284 0 15-6.716 15-15v-17.133h49.267c8.284 0 15-6.716 15-15v-144.6c-.001-8.285-6.716-15-15.001-15zm-368.466 144.6h-34.267v-114.6h34.267zm64.266 32.133h-34.266v-178.867h34.267v178.867zm160.667-72.3h-130.667v-34.267h130.667zm64.267 72.3h-34.267v-178.867h34.267zm64.266-32.133h-34.267v-114.6h34.267z"/><path d="m497 32.133h-49.267v-17.133c0-8.284-6.716-15-15-15h-64.267c-8.284 0-15 6.716-15 15v57.3h-130.666v-57.3c0-8.284-6.716-15-15-15h-64.267c-8.284 0-15 6.716-15 15v17.133h-49.266c-8.284 0-15 6.716-15 15v144.6c0 8.284 6.716 15 15 15h49.267v17.133c0 8.284 6.716 15 15 15h64.266c8.284 0 15-6.716 15-15v-57.3h130.667v57.3c0 8.284 6.716 15 15 15h64.267c8.284 0 15-6.716 15-15v-17.133h49.266c8.284 0 15-6.716 15-15v-144.6c0-8.284-6.716-15-15-15zm-368.467 144.6h-34.266v-114.6h34.267v114.6zm64.267 32.134h-34.267v-178.867h34.267zm160.667-72.3h-130.667v-34.267h130.667zm64.266 72.3h-34.267v-178.867h34.267zm64.267-32.134h-34.267v-114.6h34.267z"/></g></svg>